<?xml version="1.0" encoding="UTF-8"?>
<svg xmlns="http://www.w3.org/2000/svg" viewBox="0 0 1200 900" fill="none" role="img" aria-hidden="true">
<defs>
    <linearGradient id="bg" x1="0" x2="0" y1="0" y2="1"><stop offset="0%" stop-color="#f8fbf7"/><stop offset="100%" stop-color="#eef7f0"/></linearGradient>
    <filter id="softBlur" x="-20%" y="-20%" width="140%" height="140%"><feGaussianBlur stdDeviation="18"/></filter></defs>
<rect width="1200" height="900" fill="url(#bg)"/><ellipse cx="816.0000000000001" cy="162" rx="420" ry="198" fill="#e86f87" fill-opacity="0.12" filter="url(#softBlur)"/><path d="M0 648 C 168.00000000000003 540, 288 522, 444 612 C 600 702, 780 630, 1008 540 L 1200 540 L 1200 900 L 0 900 Z" fill="#5f8f67" fill-opacity="0.52"/><path d="M0 558 C 192 450, 384 432, 624 513 C 864 594, 996 495.00000000000006, 1176 432 L 1200 432 L 1200 774 L 0 774 Z" fill="#4fa5b6" fill-opacity="0.24"/><circle cx="180" cy="180" r="72" fill="#ffffff" fill-opacity="0.36" filter="url(#softBlur)"/><circle cx="983.9999999999999" cy="234" r="99" fill="#ffffff" fill-opacity="0.26" filter="url(#softBlur)"/>
</svg>
